# xmcd CD database file
#
# Track frame offsets:
#	150
#	22106
#	39314
#	50460
#	72607
#	92346
#	115084
#	132333
#	144609
#	165822
#
# Disc length: 2344 seconds
#
# Revision: 1
# Processed by: cddbd v1.5PL3 Copyright (c) Steve Scherf et al.
# Submitted via: CDex 1.51
#
DISCID=8109260a
DTITLE=Llewellyn and Juliana - Swimming with Dolphins
DYEAR=1998
DGENRE=New Age
TTITLE0=Swimming with Dolphins
TTITLE1=My River
TTITLE2=Holly
TTITLE3=Ghost
TTITLE4=Box of Clouds
TTITLE5=My Secret Garden
TTITLE6=Fair Child
TTITLE7=Ivory Peace
TTITLE8=Following You
TTITLE9=Box of Clouds (reprise)
EXTD=YEAR: 1998
EXTT0=
EXTT1=
EXTT2=
EXTT3=
EXTT4=
EXTT5=
EXTT6=
EXTT7=
EXTT8=
EXTT9=
PLAYORDER=
